<svg width="32" height="33" viewBox="0 0 32 33" fill="none" xmlns="http://www.w3.org/2000/svg">
<path d="M11.7867 15.1134H9.16667V12.6347H11.544C14.048 12.6347 13.7387 15.1134 11.7867 15.1134ZM19.5053 16.5241H23.004C22.8507 14.2747 19.8573 14.1107 19.5053 16.5241ZM11.6387 17.0521H9.16667V19.6481H11.5987C13.9747 19.6467 13.8293 17.0521 11.6387 17.0521ZM32 16.6667C32 25.5027 24.836 32.6667 16 32.6667C7.164 32.6667 0 25.5027 0 16.6667C0 7.83075 7.164 0.666748 16 0.666748C24.836 0.666748 32 7.83075 32 16.6667ZM14.1907 15.6894C16.4147 14.5521 16.3333 10.3814 12.0747 10.3187H6.66667V21.9587H11.6947C16.972 21.9587 16.8827 16.6694 14.1907 15.6894ZM18.6667 11.4681H24V10.3014H18.6667V11.4681ZM25.2573 16.3921C24.5307 11.7187 17.1867 11.4441 17.1867 17.5547C17.1867 23.5894 24.0933 22.6454 25.1187 19.6347H22.6547C21.7947 20.6321 19.3107 20.3427 19.4493 18.0561H25.3293C25.3413 17.3161 25.3173 16.7854 25.2573 16.3921Z" fill="#85868D"/>
</svg>
