<svg width="32" height="33" viewBox="0 0 32 33" fill="none" xmlns="http://www.w3.org/2000/svg">
<path d="M16 0.333374C7.15528 0.333374 0 7.48865 0 16.3334C0 25.1781 7.15528 32.3334 16 32.3334C24.8447 32.3334 32 25.1781 32 16.3334C32 7.48865 24.8447 0.333374 16 0.333374ZM19.9752 16.1843H17.2919V25.3272H13.6149V16.1843H11.7267V13.1532H13.6149V11.3147C13.6149 8.78058 14.8571 7.2899 17.8385 7.2899C18.882 7.2899 19.0807 7.2899 20.1242 7.2899V10.3706C19.6273 10.3706 18.9317 10.3706 18.5342 10.3706C17.3416 10.3706 17.2919 10.8675 17.2919 11.7123V13.1532H20.2236L19.9752 16.1843Z" fill="#85868D"/>
</svg>
