<svg width="32" height="33" viewBox="0 0 32 33" fill="none" xmlns="http://www.w3.org/2000/svg">
<path d="M16 0.333374C7.164 0.333374 0 7.49737 0 16.3334C0 25.1694 7.164 32.3334 16 32.3334C24.836 32.3334 32 25.1694 32 16.3334C32 7.49737 24.836 0.333374 16 0.333374ZM18.9573 25.1547C18.4853 25.2467 18.3333 24.956 18.3333 24.7067V22.1454C18.3333 21.2747 18.028 20.7067 17.692 20.4174C19.772 20.1867 21.956 19.3974 21.956 15.812C21.956 14.792 21.592 13.96 20.9947 13.3067C21.0907 13.0707 21.4107 12.1214 20.9027 10.836C20.9027 10.836 20.12 10.5854 18.3387 11.792C17.5907 11.5867 16.7933 11.484 16 11.48C15.2067 11.484 14.4093 11.5867 13.6627 11.7934C11.88 10.5867 11.096 10.8374 11.096 10.8374C10.5907 12.1227 10.9093 13.072 11.0067 13.3067C10.4093 13.96 10.044 14.792 10.044 15.812C10.044 19.388 12.2227 20.188 14.296 20.424C14.0293 20.6574 13.788 21.068 13.704 21.672C13.1707 21.9107 11.82 22.3227 10.988 20.896C10.988 20.896 10.4947 20 9.55733 19.9334C9.55733 19.9334 8.64667 19.9214 9.49333 20.5014C9.49333 20.5014 10.1067 20.788 10.5293 21.8667C10.5293 21.8667 11.0693 23.5334 13.6667 22.968V24.7054C13.6667 24.952 13.516 25.2414 13.0507 25.1547C9.34133 23.9214 6.66667 20.4227 6.66667 16.3C6.66667 11.144 10.8467 6.96671 16 6.96671C21.1533 6.96671 25.3333 11.144 25.3333 16.3C25.3333 20.4214 22.6627 23.92 18.9573 25.1547Z" fill="#85868D"/>
</svg>
