<svg width="32" height="33" viewBox="0 0 32 33" fill="none" xmlns="http://www.w3.org/2000/svg">
<path d="M16 0.666626C7.15528 0.666626 0 7.82191 0 16.6666C0 25.5113 7.15528 32.6666 16 32.6666C24.8447 32.6666 32 25.5113 32 16.6666C32 7.82191 24.8447 0.666626 16 0.666626ZM11.0311 24.8654H7.40373V13.1387H11.0311V24.8654ZM9.24224 11.8467C8.14907 11.8467 7.45342 11.1014 7.45342 10.1573C7.45342 9.16352 8.14907 8.46787 9.24224 8.46787C10.3354 8.46787 11.0311 9.21321 11.0807 10.1573C11.0807 11.1014 10.3354 11.8467 9.24224 11.8467ZM24.5963 24.8654H20.8696V18.3561C20.8696 16.8654 20.323 15.8219 18.9814 15.8219C17.9379 15.8219 17.1925 16.5176 16.9441 17.1635C16.8447 17.412 16.795 17.7598 16.795 18.0579V24.8157H13.118V13.089H16.3975V14.679H16.4969C16.9938 13.9337 18.3851 12.7908 20.323 12.7908C22.7578 12.7908 24.5963 14.3809 24.5963 17.8095V24.8654Z" fill="#85868D"/>
</svg>
